# xmcd
#
# Track frame offsets: 
#        150
#        41916
#        65016
#        80616
#        110616
#        127626
#        155856
#        194976
#
# Disc length: 2776 seconds
#
# Revision: 0
# Processed by: cddbd v1.5.2PL0 Copyright (c) Steve Scherf et al.
# Submitted via: ExactAudioCopy v1.2
#
DISCID=770ad608
DTITLE=Rod Piazza and The Mighty Flyers - Live at Fleetwoods [CD1]
DYEAR=2017
DGENRE=Blues
TTITLE0=Talk To Your Daughter (Live)
TTITLE1=Aw Baby (Live)
TTITLE2=Hydromatic Woman (Live)
TTITLE3=Westside Lex (Live)
TTITLE4=Hear Me Knockin (Live)
TTITLE5=The Stinger (Live)
TTITLE6=Tribute to George Smith (Live)
TTITLE7=Rockin' Robin (Live)
EXTD=
EXTT0=
EXTT1=
EXTT2=
EXTT3=
EXTT4=
EXTT5=
EXTT6=
EXTT7=
PLAYORDER=
